<svg width="438" height="257" viewBox="0 0 438 257" fill="none" xmlns="http://www.w3.org/2000/svg">
<g filter="url(#filter0_d_1_3)">
<path d="M218.25 244.8C213.45 244.8 208.35 243 202.95 239.4C197.55 235.8 194.85 229.8 194.85 221.4C194.85 208.2 198.75 193.65 206.55 177.75C214.65 161.55 225.15 145.2 238.05 128.7C251.25 112.2 265.65 96.3 281.25 81C297.15 65.7 312.9 51.9 328.5 39.6C344.4 27.3 358.95 17.7 372.15 10.8C385.65 3.6 396.3 3.45707e-06 404.1 3.45707e-06C414.3 3.45707e-06 419.4 4.2 419.4 12.6C419.4 17.1 415.95 24.3 409.05 34.2C402.45 43.8 391.5 54.6 376.2 66.6C360.9 78.6 340.65 90.45 315.45 102.15C290.55 113.85 259.65 124.2 222.75 133.2C205.65 137.4 188.25 141.6 170.55 145.8C153.15 150 136.65 154.65 121.05 159.75C105.75 164.85 92.55 170.7 81.45 177.3C70.65 183.9 63.15 191.7 58.95 200.7C58.35 202.2 57.45 202.8 56.25 202.5C55.35 202.2 55.5 200.85 56.7 198.45C60.3 190.05 67.5 182.55 78.3 175.95C89.4 169.05 102.6 162.9 117.9 157.5C133.5 152.1 150.15 147.15 167.85 142.65C185.55 137.85 203.1 133.35 220.5 129.15C250.5 121.95 276.3 113.55 297.9 103.95C319.8 94.05 338.1 84 352.8 73.8C367.5 63.6 379.2 54 387.9 45C396.9 35.7 403.35 28.05 407.25 22.05C411.15 15.75 413.1 11.85 413.1 10.35C413.1 6.15 410.7 4.05 405.9 4.05C398.7 4.05 389.7 7.35001 378.9 13.95C368.4 20.55 356.85 29.4 344.25 40.5C331.65 51.6 318.75 64.05 305.55 77.85C292.65 91.65 280.05 105.9 267.75 120.6C255.75 135.3 244.95 149.55 235.35 163.35C225.75 177.15 218.1 189.6 212.4 200.7C207 211.5 204.3 220.05 204.3 226.35C204.3 232.95 205.8 237 208.8 238.5C212.1 239.7 215.7 240.3 219.6 240.3C226.8 240.3 234.3 237.75 242.1 232.65C249.9 227.25 257.25 220.35 264.15 211.95C271.35 203.55 277.35 194.7 282.15 185.4C286.95 175.8 290.1 166.95 291.6 158.85C292.2 156.45 293.25 155.7 294.75 156.6C296.55 157.2 297.3 160.05 297 165.15C296.7 171.75 294.15 179.7 289.35 189C284.55 198 278.25 206.7 270.45 215.1C262.65 223.5 254.25 230.55 245.25 236.25C236.25 241.95 227.25 244.8 218.25 244.8ZM36.45 244.8C25.65 244.8 16.95 242.85 10.35 238.95C3.45 234.75 -9.38773e-07 228.9 -9.38773e-07 221.4C-9.38773e-07 217.5 1.5 214.2 4.5 211.5C7.2 208.5 10.95 207 15.75 207C21.75 207 24.75 209.4 24.75 214.2C24.75 217.8 23.7 220.2 21.6 221.4C19.2 222.6 17.25 223.2 15.75 223.2C12.75 223.2 10.65 222.9 9.45 222.3C7.95 221.7 7.2 221.4 7.2 221.4C7.2 224.4 8.7 228.3 11.7 233.1C14.4 237.6 21.3 239.85 32.4 239.85C44.4 239.85 55.95 236.55 67.05 229.95C78.45 223.05 89.4 214.05 99.9 202.95C110.7 191.55 121.2 179.25 131.4 166.05C141.9 152.55 152.4 139.2 162.9 126C171.3 115.2 180.3 104.25 189.9 93.15C199.5 82.05 209.25 71.7 219.15 62.1C229.05 52.2 238.35 43.95 247.05 37.35C249.45 35.55 251.55 34.35 253.35 33.75C255.45 33.15 256.2 33.6 255.6 35.1C255.3 36 252 39 245.7 44.1C239.7 49.2 232.05 54.9 222.75 61.2C213.45 67.5 203.7 73.05 193.5 77.85C183.3 82.65 174 85.05 165.6 85.05C159 85.05 153.9 83.55 150.3 80.55C147 77.55 145.35 73.35 145.35 67.95C145.35 61.05 147 55.05 150.3 49.95C153.9 44.85 157.8 40.5 162 36.9C166.5 33.3 170.4 30.15 173.7 27.45C177.3 24.75 179.1 22.05 179.1 19.35C179.1 15.15 176.7 12.3 171.9 10.8C167.4 9 162 8.10001 155.7 8.10001C144 8.10001 133.8 10.35 125.1 14.85C116.7 19.05 110.7 23.25 107.1 27.45C105.3 29.25 103.8 29.7 102.6 28.8C101.4 27.6 101.4 26.4 102.6 25.2C104.1 23.4 107.25 20.85 112.05 17.55C116.85 14.25 123 11.25 130.5 8.55C138 5.55 146.4 4.05 155.7 4.05C158.4 4.05 162.15 4.50001 166.95 5.40001C172.05 6.00001 176.55 7.65 180.45 10.35C184.65 13.05 186.75 17.7 186.75 24.3C186.75 32.4 184.95 39 181.35 44.1C177.75 49.2 173.7 53.4 169.2 56.7C164.7 59.7 160.65 62.25 157.05 64.35C153.45 66.45 151.65 68.85 151.65 71.55C151.65 73.65 153 75.75 155.7 77.85C158.4 79.65 162.3 80.55 167.4 80.55C175.8 80.55 184.5 78.15 193.5 73.35C202.8 68.55 211.95 62.55 220.95 55.35C230.25 48.15 239.25 40.8 247.95 33.3C256.65 25.5 264.6 18.75 271.8 13.05C279.3 7.05 285.9 3.30001 291.6 1.80001C293.1 1.2 294.15 1.2 294.75 1.80001C295.65 2.1 294.9 3 292.5 4.5C284.1 8.99999 274.8 16.8 264.6 27.9C254.7 38.7 244.05 51.45 232.65 66.15C221.25 80.85 209.25 96.3 196.65 112.5C184.35 128.7 171.6 144.6 158.4 160.2C145.5 175.8 132.3 190.05 118.8 202.95C105.3 215.55 91.65 225.75 77.85 233.55C64.05 241.05 50.25 244.8 36.45 244.8Z" fill="black"/>
</g>
<defs>
<filter id="filter0_d_1_3" x="0" y="0" width="437.4" height="256.8" filterUnits="userSpaceOnUse" color-interpolation-filters="sRGB">
<feFlood flood-opacity="0" result="BackgroundImageFix"/>
<feColorMatrix in="SourceAlpha" type="matrix" values="0 0 0 0 0 0 0 0 0 0 0 0 0 0 0 0 0 0 127 0" result="hardAlpha"/>
<feOffset dx="14" dy="8"/>
<feGaussianBlur stdDeviation="2"/>
<feComposite in2="hardAlpha" operator="out"/>
<feColorMatrix type="matrix" values="0 0 0 0 1 0 0 0 0 1 0 0 0 0 1 0 0 0 0.45 0"/>
<feBlend mode="normal" in2="BackgroundImageFix" result="effect1_dropShadow_1_3"/>
<feBlend mode="normal" in="SourceGraphic" in2="effect1_dropShadow_1_3" result="shape"/>
</filter>
</defs>
</svg>
